<?xml version="1.0" encoding="utf-8"?>
<!-- Generator: Adobe Illustrator 27.1.1, SVG Export Plug-In . SVG Version: 6.00 Build 0)  -->
<svg version="1.1" id="Layer_1" xmlns="http://www.w3.org/2000/svg" xmlns:xlink="http://www.w3.org/1999/xlink" x="0px" y="0px"
	 viewBox="0 0 24 24" style="enable-background:new 0 0 24 24;" xml:space="preserve">
<style type="text/css">
	.st0{fill:#E8E8E8;}
</style>
<path class="st0" d="M3,6h18v12H3V6z M2,4C1.4,4,1,4.4,1,5v14c0,0.6,0.4,1,1,1h20c0.6,0,1-0.4,1-1V5c0-0.6-0.4-1-1-1H2z M13,8h6v2
	h-6V8z M18,12h-5v2h5V12z M10.5,10c0,1.4-1.1,2.5-2.5,2.5S5.5,11.4,5.5,10c0-1.4,1.1-2.5,2.5-2.5S10.5,8.6,10.5,10z M8,13.5
	c-1.9,0-3.5,1.6-3.5,3.5h7C11.5,15.1,9.9,13.5,8,13.5z"/>
</svg>
