<?xml version="1.0" encoding="utf-8"?>
<!-- Generator: Adobe Illustrator 27.1.1, SVG Export Plug-In . SVG Version: 6.00 Build 0)  -->
<svg version="1.1" id="Layer_1" xmlns="http://www.w3.org/2000/svg" xmlns:xlink="http://www.w3.org/1999/xlink" x="0px" y="0px"
	 viewBox="0 0 24 24" style="enable-background:new 0 0 24 24;" xml:space="preserve">
<style type="text/css">
	.st0{fill:#E8E8E8;}
</style>
<path class="st0" d="M12,22C6.5,22,2,17.5,2,12C2,6.5,6.5,2,12,2c5.5,0,10,4.5,10,10C22,17.5,17.5,22,12,22z M12,20c4.4,0,8-3.6,8-8
	c0-4.4-3.6-8-8-8c-4.4,0-8,3.6-8,8C4,16.4,7.6,20,12,20z M12,10.6l2.8-2.8l1.4,1.4L13.4,12l2.8,2.8l-1.4,1.4L12,13.4l-2.8,2.8
	l-1.4-1.4l2.8-2.8L7.8,9.2l1.4-1.4L12,10.6z"/>
</svg>
