<?xml version="1.0" encoding="utf-8"?>
<!-- Generator: Adobe Illustrator 27.1.1, SVG Export Plug-In . SVG Version: 6.00 Build 0)  -->
<svg version="1.1" id="Layer_1" xmlns="http://www.w3.org/2000/svg" xmlns:xlink="http://www.w3.org/1999/xlink" x="0px" y="0px"
	 viewBox="0 0 24 24" style="enable-background:new 0 0 24 24;" xml:space="preserve">
<style type="text/css">
	.st0{fill:#EAEAEA;}
</style>
<path class="st0" d="M10,2.2c1.3-0.3,2.7-0.3,4.1,0c0.2,1.2,0.9,2.2,2,2.9c1.1,0.6,2.4,0.7,3.5,0.3c0.9,1,1.6,2.2,2,3.5
	C20.6,9.6,20,10.7,20,12c0,1.3,0.6,2.4,1.5,3.1c-0.2,0.6-0.5,1.3-0.8,1.9c-0.4,0.6-0.8,1.2-1.2,1.7c-1.1-0.4-2.4-0.4-3.5,0.3
	c-1.1,0.6-1.8,1.7-2,2.9c-1.3,0.3-2.7,0.3-4.1,0c-0.2-1.2-0.9-2.2-2-2.9c-1.1-0.6-2.4-0.7-3.5-0.3c-0.9-1-1.6-2.2-2-3.5
	C3.4,14.4,4,13.3,4,12c0-1.3-0.6-2.4-1.5-3.1C2.7,8.2,3,7.6,3.3,7c0.4-0.6,0.8-1.2,1.2-1.7C5.6,5.8,6.9,5.7,8,5.1
	C9.1,4.4,9.8,3.4,10,2.2z M12,15c1.7,0,3-1.3,3-3c0-1.7-1.3-3-3-3c-1.7,0-3,1.3-3,3C9,13.7,10.3,15,12,15z"/>
</svg>
