<?xml version="1.0" encoding="utf-8"?>
<!-- Generator: Adobe Illustrator 27.1.1, SVG Export Plug-In . SVG Version: 6.00 Build 0)  -->
<svg version="1.1" id="Layer_1" xmlns="http://www.w3.org/2000/svg" xmlns:xlink="http://www.w3.org/1999/xlink" x="0px" y="0px"
	 viewBox="0 0 24 24" style="enable-background:new 0 0 24 24;" xml:space="preserve">
<style type="text/css">
	.st0{fill:#EAEAEA;}
</style>
<path class="st0" d="M1.3,1.3h21.3c0.7,0,1.2,0.5,1.2,1.2v19c0,0.7-0.5,1.2-1.2,1.2H1.3c-0.7,0-1.2-0.5-1.2-1.2v-19
	C0.1,1.9,0.7,1.3,1.3,1.3z M2.5,3.7v16.6h19V3.7H2.5z M7.9,14.4h6.5c0.3,0,0.6-0.3,0.6-0.6c0-0.3-0.3-0.6-0.6-0.6H9.6
	c-1.6,0-3-1.3-3-3c0-1.6,1.3-3,3-3h1.2V4.9h2.4v2.4h3v2.4H9.6C9.3,9.6,9,9.9,9,10.2c0,0.3,0.3,0.6,0.6,0.6h4.7c1.6,0,3,1.3,3,3
	c0,1.6-1.3,3-3,3h-1.2v2.4h-2.4v-2.4h-3V14.4z"/>
</svg>
