<?xml version="1.0" encoding="utf-8"?>
<!-- Generator: Adobe Illustrator 27.1.1, SVG Export Plug-In . SVG Version: 6.00 Build 0)  -->
<svg version="1.1" id="Layer_1" xmlns="http://www.w3.org/2000/svg" xmlns:xlink="http://www.w3.org/1999/xlink" x="0px" y="0px"
	 viewBox="0 0 24 24" style="enable-background:new 0 0 24 24;" xml:space="preserve">
<style type="text/css">
	.st0{fill:#EAEAEA;}
</style>
<path class="st0" d="M4.6,17.3C3.6,16.2,3,15,3,13c0-3.5,2.5-6.6,6-8.2l0.9,1.4c-3.3,1.8-4,4.1-4.2,5.6c0.5-0.3,1.2-0.4,1.9-0.3
	c1.8,0.2,3.2,1.6,3.2,3.5c0,1.9-1.6,3.5-3.5,3.5C6.3,18.5,5.2,18,4.6,17.3z M14.6,17.3C13.6,16.2,13,15,13,13c0-3.5,2.5-6.6,6-8.2
	l0.9,1.4c-3.3,1.8-4,4.1-4.2,5.6c0.5-0.3,1.2-0.4,1.9-0.3c1.8,0.2,3.2,1.6,3.2,3.5c0,1.9-1.6,3.5-3.5,3.5
	C16.3,18.5,15.2,18,14.6,17.3z"/>
</svg>
