<?xml version="1.0" encoding="utf-8"?>
<!-- Generator: Adobe Illustrator 27.1.1, SVG Export Plug-In . SVG Version: 6.00 Build 0)  -->
<svg version="1.1" id="Layer_1" xmlns="http://www.w3.org/2000/svg" xmlns:xlink="http://www.w3.org/1999/xlink" x="0px" y="0px"
	 viewBox="0 0 24 24" style="enable-background:new 0 0 24 24;" xml:space="preserve">
<style type="text/css">
	.st0{fill:#EAEAEA;}
</style>
<path class="st0" d="M13,1l0,3.1c3.6,0.5,6.5,3.3,6.9,6.9H23v2l-3.1,0c-0.5,3.6-3.3,6.5-6.9,6.9l0,3.1h-2v-3.1
	c-3.6-0.5-6.5-3.3-6.9-6.9L1,13v-2h3.1C4.5,7.4,7.4,4.5,11,4.1V1H13z M12,6c-3.3,0-6,2.7-6,6c0,3.3,2.7,6,6,6c3.3,0,6-2.7,6-6
	C18,8.7,15.3,6,12,6z M12,10c1.1,0,2,0.9,2,2s-0.9,2-2,2s-2-0.9-2-2S10.9,10,12,10z"/>
</svg>
