<?xml version="1.0" encoding="utf-8"?>
<!-- Generator: Adobe Illustrator 27.1.1, SVG Export Plug-In . SVG Version: 6.00 Build 0)  -->
<svg version="1.1" id="Layer_1" xmlns="http://www.w3.org/2000/svg" xmlns:xlink="http://www.w3.org/1999/xlink" x="0px" y="0px"
	 viewBox="0 0 24 24" style="enable-background:new 0 0 24 24;" xml:space="preserve">
<style type="text/css">
	.st0{fill:#EAEAEA;}
</style>
<path class="st0" d="M17.4,19c-0.8-2.4-2.3-3.9-4.3-5.6C15,11.9,17.4,11,20,11V3h1c0.5,0,1,0.4,1,1v16c0,0.5-0.5,1-1,1H3
	c-0.5,0-1-0.4-1-1V4c0-0.5,0.5-1,1-1h3V1h2v4H4v7c5.2,0,9.7,2.5,11.3,7H17.4z M18,1v4h-8V3h6V1H18z M16.5,10C15.7,10,15,9.3,15,8.5
	S15.7,7,16.5,7S18,7.7,18,8.5S17.3,10,16.5,10z"/>
</svg>
