<?xml version="1.0" encoding="utf-8"?>
<!-- Generator: Adobe Illustrator 27.1.1, SVG Export Plug-In . SVG Version: 6.00 Build 0)  -->
<svg version="1.1" id="Layer_1" xmlns="http://www.w3.org/2000/svg" xmlns:xlink="http://www.w3.org/1999/xlink" x="0px" y="0px"
	 viewBox="0 0 126 126" style="enable-background:new 0 0 126 126;" xml:space="preserve">
<style type="text/css">
	.st0{fill:#EAEAEA;}
</style>
<path class="st0" d="M93.2,44.2h10.4c2.9,0,5.2,2.3,5.2,5.2V112c0,2.9-2.3,5.2-5.2,5.2H20.2c-2.9,0-5.2-2.3-5.2-5.2V49.4
	c0-2.9,2.3-5.2,5.2-5.2h10.4V39c0-17.3,14-31.3,31.3-31.3c17.3,0,31.3,14,31.3,31.3V44.2z M25.4,54.7v52.2h73V54.7H25.4z M56.7,75.5
	h10.4V86H56.7V75.5z M35.9,75.5h10.4V86H35.9V75.5z M77.6,75.5H88V86H77.6V75.5z M82.8,44.2V39c0-11.5-9.3-20.9-20.9-20.9
	c-11.5,0-20.9,9.3-20.9,20.9v5.2H82.8z"/>
</svg>
