<?xml version="1.0" encoding="utf-8"?>
<!-- Generator: Adobe Illustrator 27.1.1, SVG Export Plug-In . SVG Version: 6.00 Build 0)  -->
<svg version="1.1" id="Layer_1" xmlns="http://www.w3.org/2000/svg" xmlns:xlink="http://www.w3.org/1999/xlink" x="0px" y="0px"
	 viewBox="0 0 24 24" style="enable-background:new 0 0 24 24;" xml:space="preserve">
<style type="text/css">
	.st0{fill:#E8E8E8;}
</style>
<path class="st0" d="M2,4c0-0.5,0.5-1,1-1h18c0.5,0,1,0.4,1,1v16c0,0.5-0.5,1-1,1H3c-0.5,0-1-0.4-1-1V4z M12,12.2
	c-0.3-0.1-0.6-0.2-1-0.2c-1.7,0-3,1.3-3,3s1.3,3,3,3c1.7,0,3-1.3,3-3V8h3V6h-5V12.2z"/>
</svg>
