<?xml version="1.0" encoding="utf-8"?>
<!-- Generator: Adobe Illustrator 27.1.1, SVG Export Plug-In . SVG Version: 6.00 Build 0)  -->
<svg version="1.1" id="Layer_1" xmlns="http://www.w3.org/2000/svg" xmlns:xlink="http://www.w3.org/1999/xlink" x="0px" y="0px"
	 viewBox="0 0 120 120" style="enable-background:new 0 0 120 120;" xml:space="preserve">
<style type="text/css">
	.st0{fill:#EAEAEA;}
</style>
<path class="st0" d="M15,25c0-5.5,4.5-10,10-10h70c5.5,0,10,4.5,10,10v70c0,5.5-4.5,10-10,10H25c-5.5,0-10-4.5-10-10V25z M25,25v70
	h70V25H25z M39.9,90.9c-3.1-1.3-6-3-8.8-4.9c6.2-9.6,17.1-16,29.4-16c12,0,22.6,6,28.9,15.2c-2.7,2-5.6,3.7-8.6,5.1
	C76.2,84.1,68.9,80,60.5,80C51.9,80,44.4,84.3,39.9,90.9z M60,65c-9.7,0-17.5-7.8-17.5-17.5S50.3,30,60,30s17.5,7.8,17.5,17.5
	S69.7,65,60,65z M60,55c4.1,0,7.5-3.4,7.5-7.5c0-4.1-3.4-7.5-7.5-7.5s-7.5,3.4-7.5,7.5C52.5,51.6,55.9,55,60,55z"/>
</svg>
