<?xml version="1.0" encoding="utf-8"?>
<!-- Generator: Adobe Illustrator 27.1.1, SVG Export Plug-In . SVG Version: 6.00 Build 0)  -->
<svg version="1.1" id="Layer_1" xmlns="http://www.w3.org/2000/svg" xmlns:xlink="http://www.w3.org/1999/xlink" x="0px" y="0px"
	 viewBox="0 0 24 24" style="enable-background:new 0 0 24 24;" xml:space="preserve">
<style type="text/css">
	.st0{fill:#E8E8E8;}
</style>
<path class="st0" d="M16,20V4H4v15c0,0.6,0.4,1,1,1H16z M19,22H5c-1.7,0-3-1.3-3-3V3c0-0.6,0.4-1,1-1h14c0.6,0,1,0.4,1,1v7h4v9
	C22,20.7,20.7,22,19,22z M18,12v7c0,0.6,0.4,1,1,1s1-0.4,1-1v-7H18z M6,6h6v6H6V6z M8,8v2h2V8H8z M6,13h8v2H6V13z M6,16h8v2H6V16z"
	/>
</svg>
