<?xml version="1.0" encoding="utf-8"?>
<!-- Generator: Adobe Illustrator 27.1.1, SVG Export Plug-In . SVG Version: 6.00 Build 0)  -->
<svg version="1.1" id="Layer_1" xmlns="http://www.w3.org/2000/svg" xmlns:xlink="http://www.w3.org/1999/xlink" x="0px" y="0px"
	 viewBox="0 0 24 24" style="enable-background:new 0 0 24 24;" xml:space="preserve">
<style type="text/css">
	.st0{fill:#EAEAEA;}
</style>
<path class="st0" d="M18.6,20H4c-0.3,0-0.5-0.2-0.5-0.5c0-0.1,0-0.2,0.1-0.3L4,18.7V10c0-1.3,0.3-2.6,0.9-3.7L1.4,2.8l1.4-1.4
	l19.8,19.8l-1.4,1.4L18.6,20z M6.4,7.8C6.1,8.5,6,9.2,6,10v8h10.6L6.4,7.8z M20,15.8l-2-2V10c0-3.3-2.7-6-6-6c-1.1,0-2.1,0.3-3,0.8
	L7.6,3.3C8.8,2.5,10.4,2,12,2c4.4,0,8,3.6,8,8V15.8z M9.5,21h5c0,1.4-1.1,2.5-2.5,2.5C10.6,23.5,9.5,22.4,9.5,21z"/>
</svg>
