<?xml version="1.0" encoding="utf-8"?>
<!-- Generator: Adobe Illustrator 27.1.1, SVG Export Plug-In . SVG Version: 6.00 Build 0)  -->
<svg version="1.1" id="Layer_1" xmlns="http://www.w3.org/2000/svg" xmlns:xlink="http://www.w3.org/1999/xlink" x="0px" y="0px"
	 viewBox="0 0 24 24" style="enable-background:new 0 0 24 24;" xml:space="preserve">
<style type="text/css">
	.st0{fill:#E8E8E8;}
</style>
<path class="st0" d="M10.6,17.8c-0.3,0.8-1.4,0.8-1.7,0l-0.9-2c-0.8-1.8-2.2-3.2-3.9-4l-2.4-1.1c-0.8-0.3-0.8-1.5,0-1.8l2.3-1
	c1.8-0.8,3.2-2.3,4-4.1l0.9-2.1c0.3-0.8,1.4-0.8,1.8,0l0.9,2.1c0.8,1.8,2.2,3.3,4,4.1l2.3,1c0.8,0.3,0.8,1.5,0,1.8l-2.4,1.1
	c-1.8,0.8-3.2,2.2-3.9,4L10.6,17.8z M4.5,9.8c2.3,1,4.1,2.7,5.2,5c1.1-2.3,2.9-4,5.2-5c-2.3-1-4.2-2.8-5.2-5.1
	C8.7,7,6.9,8.8,4.5,9.8z M19.4,22.7l0.2-0.6c0.4-1,1.2-1.8,2.2-2.3l0.8-0.3c0.4-0.2,0.4-0.8,0-1l-0.7-0.3c-1-0.5-1.8-1.3-2.3-2.3
	l-0.3-0.6c-0.2-0.4-0.8-0.4-0.9,0l-0.3,0.6c-0.4,1-1.2,1.9-2.3,2.3l-0.7,0.3c-0.4,0.2-0.4,0.8,0,1l0.8,0.3c1,0.4,1.8,1.2,2.2,2.3
	l0.2,0.6C18.6,23.1,19.2,23.1,19.4,22.7z M18.4,19l0.6-0.6l0.6,0.6l-0.6,0.5L18.4,19z"/>
</svg>
