<?xml version="1.0" encoding="utf-8"?>
<!-- Generator: Adobe Illustrator 27.1.1, SVG Export Plug-In . SVG Version: 6.00 Build 0)  -->
<svg version="1.1" id="Layer_1" xmlns="http://www.w3.org/2000/svg" xmlns:xlink="http://www.w3.org/1999/xlink" x="0px" y="0px"
	 viewBox="0 0 24 24" style="enable-background:new 0 0 24 24;" xml:space="preserve">
<style type="text/css">
	.st0{fill:#E8E8E8;}
</style>
<path class="st0" d="M12,1l9.5,5.5v11L12,23l-9.5-5.5v-11L12,1z M12,3.3L4.5,7.7v8.7l7.5,4.3l7.5-4.3V7.7L12,3.3z M12,16
	c-2.2,0-4-1.8-4-4c0-2.2,1.8-4,4-4c2.2,0,4,1.8,4,4C16,14.2,14.2,16,12,16z M12,14c1.1,0,2-0.9,2-2s-0.9-2-2-2s-2,0.9-2,2
	S10.9,14,12,14z"/>
</svg>
