<?xml version="1.0" encoding="utf-8"?>
<!-- Generator: Adobe Illustrator 27.1.1, SVG Export Plug-In . SVG Version: 6.00 Build 0)  -->
<svg version="1.1" id="Layer_1" xmlns="http://www.w3.org/2000/svg" xmlns:xlink="http://www.w3.org/1999/xlink" x="0px" y="0px"
	 viewBox="0 0 24 24" style="enable-background:new 0 0 24 24;" xml:space="preserve">
<style type="text/css">
	.st0{fill:#EAEAEA;}
</style>
<path class="st0" d="M20,9V5H4v4H20z M20,11H4v8h16V11z M3,3h18c0.6,0,1,0.4,1,1v16c0,0.6-0.4,1-1,1H3c-0.6,0-1-0.4-1-1V4
	C2,3.4,2.4,3,3,3z M5,12h3v5H5V12z M5,6h2v2H5V6z M9,6h2v2H9V6z"/>
</svg>
