<?xml version="1.0" encoding="utf-8"?>
<!-- Generator: Adobe Illustrator 27.1.1, SVG Export Plug-In . SVG Version: 6.00 Build 0)  -->
<svg version="1.1" id="Layer_1" xmlns="http://www.w3.org/2000/svg" xmlns:xlink="http://www.w3.org/1999/xlink" x="0px" y="0px"
	 viewBox="0 0 24 24" style="enable-background:new 0 0 24 24;" xml:space="preserve">
<style type="text/css">
	.st0{fill:#D36D11;}
</style>
<path class="st0" d="M21,17.2l-1.4,1.4L16,15.1l-0.1,0.1l-0.7,3.5l-1.4,1.4l-4.2-4.2l-4.9,4.9l-1.4-1.4l4.9-4.9l-4.2-4.2l1.4-1.4
	l3.5-0.7L9,8L5.4,4.4L6.8,3L21,17.2z M10.4,9.4L9.9,9.9L7,10.5l6.5,6.5l0.6-2.8l0.5-0.5L10.4,9.4z M18.8,9.5l-1.3,1.3l1.4,1.4
	l1.3-1.3l0.7,0.7l1.4-1.4l-8.5-8.5l-1.4,1.4l0.7,0.7l-1.3,1.3l1.4,1.4l1.3-1.3L18.8,9.5z"/>
</svg>
