<svg xmlns="http://www.w3.org/2000/svg" width="56" height="40" fill="none"><g clip-path="url(#a)"><path fill="#313030" d="M55.429 17.275c-.023.04-.058.075-.081.116l-4.423 8.479a.696.696 0 0 0-.075.3c-.012 1.307-.012 2.62-.017 3.928v.104l-5.497 1.06v-1.02a542.4 542.4 0 0 0 .011-3.543.294.294 0 0 0-.04-.138l-1.368-2.143a.161.161 0 0 0-.127-.057c-.197.028-.393.069-.612.115v4.095l-3.938.76v3.1l-1.114.219-7.108 1.37-5.19 1.003a.15.15 0 0 1-.162-.063c-.226-.311-.462-.622-.699-.945-.029.046-.052.075-.07.11-.213.368-.42.742-.64 1.111a.248.248 0 0 1-.15.115l-8.805 1.7c-.405.075-.814.184-1.224.23a5.457 5.457 0 0 1-1.063.006c-1.074-.087-2.055-.438-2.916-1.1a4.705 4.705 0 0 1-.946-.968.139.139 0 0 0-.168-.063l-3.372.65-.115.03v3.104L0 40.006l.08-12.114 5.925-1.14-1.409-1.735 6.316-7.304c-.398-.795-.796-1.613-1.2-2.42a.224.224 0 0 1 .017-.258c2.652-3.944 5.298-7.892 7.939-11.844.71-1.06 1.42-2.125 2.165-3.191v5.219l4.821-1.941-.52 1.883.076-.017L36.733.899l.092-.03.012.012c-.07.116-.133.23-.208.34l-3.037 4.695-.052.086c.381.04.75.075 1.12.133 2.76.397 5.306 1.33 7.518 3.07.358.277.675.61 1.01.922.066.071.127.146.185.224l-2.194.277.08.069c2.01 1.434 3.592 3.22 4.51 5.536.322.81.516 1.665.577 2.534l.018.179.017.029c.017-.006.046 0 .063-.012.249-.11.376.006.503.219.34.57.704 1.123 1.068 1.694l.266-.49c.329-.622.658-1.238.987-1.866a.23.23 0 0 1 .185-.139l5.854-1.123.122-.011v.028ZM24.036 11.89a.631.631 0 0 0 .098-.074l5.601-4.966.947-.83c-.006.047 0 .093-.006.133l-.589 2.684c-.052.26-.098.519-.15.784h-.011v-.012c.011-.011.029-.023.034-.04l3.898-6.18.04-.087-.179.057-3.118 1.135c-.543.196-1.091.375-1.634.559l-.08.023-3.274 1.1c-.312.11-.636.202-.936.34-.3.138-.6.328-.906.501l-3.083 1.728-.018-.017.884-1.336.9-1.366.018-.017h-.035l-.116.04-3.371 1.29-.791.3c.052-.973.104-1.924.161-2.909l-.063.075-6.392 8.929a.282.282 0 0 0-.046.19c.167 1.192.34 2.39.508 3.583.002.07-.02.14-.063.196l-5.22 6.273c-.03.034-.056.071-.08.11l3.238-.358-1.443 1.9-.768 1.003c.144.121.277.236.416.34.05.036.11.056.173.058l3.21-.11c.624-.023.624-.017 1.15-.363a22.571 22.571 0 0 1 2.401-1.388c2.373-1.158 4.873-1.763 7.512-1.74.733.006 1.46.07 2.165.11-.45-.288-.947-.576-1.345-.985l.011-.058 5.168.594-3.915-2.846.162-.035a32.648 32.648 0 0 1 4.96-.593 26.648 26.648 0 0 1 3.458.058l.912.19c.22.052.439.115.658.178v-.057h.006a1.391 1.391 0 0 0-.052-.167c-1.016-2.46-2.69-4.35-4.977-5.697l-.11-.075h.278l.086.011h.058c.294.035.589.064.878.116 2.765.483 5.115 1.728 7.015 3.801.597.655 1.121 1.371 1.565 2.137.04.064.063.116.155.093l1.034-.208 2.217-.42 1.386-.265c0-.035.006-.064.006-.092a8 8 0 0 0-.162-1.74c-.306-1.498-.999-2.811-1.952-3.998-1.039-1.296-2.298-2.356-3.66-3.289l-.121-.086 2.009-.404a.672.672 0 0 0-.139-.109c-.468-.282-.924-.593-1.414-.835-1.813-.893-3.753-1.308-5.757-1.458a.185.185 0 0 0-.144.081l-1.634 2.5c-.018.029-.023.058-.04.086l.184.046c1.588.38 3.008 1.1 4.325 2.046.45.316.866.685 1.293 1.03l-.017.024c-.86-.386-1.732-.738-2.639-.985-1.911-.525-3.863-.709-5.837-.674a26.858 26.858 0 0 0-4.134.397l-.878.167.093-.098.028-.029Zm-4.734 23.215 3.574-.686a.318.318 0 0 0 .248-.184c.323-.588.658-1.17.987-1.757l.508-.899.116.15 1.455 1.947a.144.144 0 0 0 .173.07l1.53-.294 1.784-.346-3.43-4.176 3.373-5.536-3.476.668a.277.277 0 0 0-.15.121l-1.426 2.489-.076.138-.098-.121c-.479-.634-.964-1.267-1.443-1.907a.156.156 0 0 0-.19-.075c-.491.104-.976.19-1.467.288l-1.796.346 3.25 4.067-.04.075-2.54 4.147c-.294.484-.589.968-.878 1.452l-.017.017.029.006Zm.589-4.614c-.006-.162-.006-.329-.023-.496a5.14 5.14 0 0 0-.081-.599c-.312-1.676-1.236-2.822-2.899-3.318a.37.37 0 0 0-.236.012c-.731.257-1.432.594-2.09 1.002-.572.351-1.126.72-1.692 1.077a.497.497 0 0 1-.243.075l-1.853.064c-.531.017-.531.017-.797.472-.71 1.221-.883 2.529-.64 3.905.363 2.005 1.818 3.272 3.822 3.45a6.537 6.537 0 0 0 3.389-.616c2.125-.996 3.256-2.672 3.343-5.028Zm22.72-9.603-7.627 1.469c-.018 3.255-.04 6.492-.064 9.74l3.181-.616v-3.11l3.927-.755v-2.471l-3.898.749v-1.67l4.48-.865v-2.47ZM8.285 31.642l-3.897.749v-1.67l4.475-.865v-1.325c-.381-.029-.75-.075-1.126-.086-.266-.006-.48-.07-.612-.317-.052-.098-.144-.167-.208-.26a.156.156 0 0 0-.196-.069l-4.521.87-.959.185a8247.17 8247.17 0 0 0-.063 9.74l3.181-.616v-3.11l3.926-.76v-2.466Zm34.741-10.83.087.139 3.331 5.23a.448.448 0 0 1 .07.224c0 .922-.006 1.844-.012 2.765v.692l.087-.012 2.95-.57c.098-.017.133-.04.133-.15 0-1.1.006-2.194.012-3.289a.517.517 0 0 1 .057-.225l2.87-5.5.664-1.274-.11.012-2.921.564a.255.255 0 0 0-.214.162l-1.368 2.569c-.18.345-.364.69-.555 1.042l-.098-.144a877.416 877.416 0 0 1-1.743-2.753c-.047-.07-.087-.098-.18-.075l-2.101.403-.959.19Zm-9.41 11.532c.022-3.254.04-6.492.063-9.735l-3.164.611-.07 9.735 3.17-.61ZM11.31 14.602c-.162.231-.3.438-.439.646a.15.15 0 0 0-.017.11l.78 1.727h.017c-.11-.823-.226-1.636-.341-2.483Z"/><path fill="#313030" d="m36.825.87.024-.012V.87L36.83.88 36.825.87Z"/><path fill="#F56B30" d="m20.688 8.744 3.083-1.728c.306-.173.595-.363.906-.501.312-.138.624-.23.936-.34l3.273-1.1.081-.023c-.005.017-.005.04-.017.052l-1.12 1.538-1.75 2.402c-.6.823-1.206 1.647-1.801 2.471-.087.12-.162.253-.243.374l-.029.035-.092.098.878-.167a26.87 26.87 0 0 1 4.134-.398c1.974-.034 3.926.15 5.837.674.907.248 1.778.6 2.639.985h.034l-.017-.028c-.427-.346-.843-.715-1.293-1.032-1.317-.944-2.737-1.664-4.325-2.044l-.185-.047c.018-.028.023-.057.04-.086l1.635-2.5a.185.185 0 0 1 .144-.08c2.004.15 3.944.564 5.757 1.457.49.242.947.553 1.414.835.051.03.098.067.139.11l-2.01.403.122.086c1.362.939 2.621 1.999 3.66 3.295.953 1.187 1.646 2.5 1.952 3.998.117.572.171 1.155.162 1.74 0 .028-.006.057-.006.091l-1.386.265-2.217.421a.672.672 0 0 0-.029-.115c-.15-.317-.294-.634-.456-.945a8.017 8.017 0 0 0-2.055-2.494 9.112 9.112 0 0 0-3.014-1.648 21.185 21.185 0 0 0-1.998-.524c-.416-.098-.849-.132-1.282-.178a20.811 20.811 0 0 0-1.05-.081c-.22-.012-.434-.006-.653 0a.3.3 0 0 0-.11.046h-.058l-.086-.011h-.277l.11.074c2.286 1.348 3.96 3.238 4.976 5.697.021.055.038.11.052.167a.762.762 0 0 1-.104-.086c-.23-.23-.456-.466-.698-.691-.387-.352-.78-.709-1.19-1.043a16.682 16.682 0 0 0-2.892-1.918 16.18 16.18 0 0 0-2.749-1.152 14.064 14.064 0 0 0-3.516-.61c-.49-.024-.987.01-1.478.022-.151.011-.302.03-.45.058l-.341-.277 1.524-.8-.046-.018-3.418-.506a.283.283 0 0 0-.225.063l-2.685 2.2-2.05 1.682-.011.012v-.017l.156-.04 1.143-.433-.058.11c-.52.84-1.033 1.688-1.547 2.529-.081.126-.145.253-.22.38h.006l-.046.029-.081.109-1.103 1.198c-.444.473-.889.945-1.34 1.411-.45.467-.82.859-1.23 1.29l-.213.22-.029.017-3.239.357c.025-.038.052-.075.081-.11l5.22-6.272a.305.305 0 0 0 .063-.196c-.167-1.193-.34-2.39-.508-3.583a.282.282 0 0 1 .046-.19l6.392-8.929.063-.075c-.057.985-.11 1.936-.161 2.91l.79-.3 3.373-1.29.115-.041.017.017-.9 1.366-.884 1.336c-.006.006-.006.017-.011.029l.029-.012Z"/><path fill="#E24614" d="m10.231 23.71.214-.22c.41-.431.825-.857 1.23-1.29.404-.431.895-.938 1.34-1.41l1.108-1.193.08-.11.047-.028h-.006l.046-.03a1025.4 1025.4 0 0 1 2.004-2.12c.08-.086.177-.158.283-.212l3.366-1.573 2.072-.956c.15-.028.3-.047.45-.058.492-.011.988-.046 1.479-.023 1.193.054 2.375.259 3.516.611.95.297 1.87.68 2.749 1.146a16.682 16.682 0 0 1 2.892 1.919c.41.334.803.69 1.19 1.042.242.225.467.46.698.691a.76.76 0 0 0 .104.087h-.006v.057c-.219-.063-.438-.126-.658-.178l-.912-.19-.318-.087a24.306 24.306 0 0 0-5.848-.518c-1.848.063-3.655.328-5.422.91-2.939.956-5.884 1.884-8.828 2.823l-2.87.91Z"/><path fill="#FEFEFE" d="M19.89 30.49c-.086 2.356-1.218 4.032-3.342 5.029a6.538 6.538 0 0 1-3.39.616c-2.003-.179-3.458-1.446-3.822-3.45-.242-1.377-.069-2.685.641-3.906.266-.455.266-.455.797-.473l1.853-.063a.497.497 0 0 0 .243-.075c.566-.357 1.12-.726 1.692-1.077.658-.409 1.359-.745 2.09-1.002a.37.37 0 0 1 .236-.012c1.663.496 2.587 1.642 2.899 3.318.039.198.066.398.08.6.018.166.018.333.024.495Zm-7.47.743c.034.27.052.547.115.818.162.697.554 1.21 1.287 1.377.976.218 2.056-.294 2.524-1.21.467-.916.444-1.7.133-2.57-.203-.57-.624-.956-1.23-1.048-.763-.12-1.45.07-2.015.605-.566.536-.786 1.25-.815 2.028ZM10.231 23.71l2.87-.91c2.944-.94 5.89-1.867 8.828-2.823 1.767-.582 3.574-.847 5.422-.91 1.963-.064 3.927.11 5.848.518l.318.087a26.684 26.684 0 0 0-3.459-.058 32.66 32.66 0 0 0-4.96.593l-.16.035 3.914 2.845-5.168-.593-.011.058c.398.409.895.697 1.345.985-.704-.04-1.432-.104-2.165-.11-2.639-.023-5.139.582-7.512 1.74-.828.413-1.63.877-2.402 1.388-.525.346-.525.34-1.149.363l-3.21.11a.312.312 0 0 1-.173-.058c-.139-.104-.272-.219-.416-.34l.768-1.002 1.443-1.901.03-.017Z"/><path fill="#FEFEFE" d="M19.29 35.08c.289-.483.583-.967.878-1.45a1191.4 1191.4 0 0 1 2.54-4.148l.04-.075-3.25-4.067 1.796-.346c.49-.098.976-.184 1.466-.288a.156.156 0 0 1 .19.075c.48.64.965 1.273 1.444 1.907l.099.12.075-.137 1.426-2.489a.277.277 0 0 1 .15-.12l3.476-.67-3.372 5.537 3.43 4.176-1.785.346-1.53.293a.144.144 0 0 1-.173-.069l-1.455-1.947-.116-.15-.508.899c-.329.588-.664 1.17-.987 1.757a.317.317 0 0 1-.248.184l-3.574.686a.029.029 0 0 0-.012-.023ZM42.61 20.887v2.471l-4.48.864v1.67l3.898-.748v2.471l-3.927.755v3.11l-3.181.617c.023-3.25.046-6.486.064-9.741l7.627-1.469ZM8.285 31.642v2.465l-3.926.76v3.111l-3.181.616c.023-3.248.044-6.495.063-9.74l.959-.185 4.52-.87a.156.156 0 0 1 .197.07c.064.092.156.16.208.259.133.247.346.31.612.317.375.011.745.057 1.126.086v1.325l-4.475.864v1.67l3.897-.748ZM43.026 20.812l.959-.19 2.102-.403c.092-.023.132.006.178.075.578.921 1.16 1.84 1.744 2.753l.098.144c.19-.351.376-.697.555-1.042l1.368-2.57a.253.253 0 0 1 .214-.16l2.921-.565.11-.012-.664 1.273-2.87 5.501a.517.517 0 0 0-.057.225 619.636 619.636 0 0 0-.012 3.29c0 .109-.035.132-.133.149l-2.95.57-.087.012v-.691c.006-.922.012-1.844.012-2.765a.449.449 0 0 0-.07-.225l-3.331-5.23-.087-.139ZM33.615 32.344l-3.17.611.07-9.735 3.164-.61c-.023 3.243-.04 6.48-.064 9.734Z"/><path fill="#E24614" d="M24.036 11.89c.081-.122.156-.254.243-.375.595-.824 1.2-1.648 1.801-2.471l1.75-2.402 1.12-1.538c.011-.012.011-.035.017-.052.543-.185 1.091-.363 1.634-.559l3.118-1.135.179-.057-.04.086-3.892 6.187c-.006.017-.023.028-.035.04h.006c.052-.265.098-.524.15-.783l.59-2.685c.005-.04 0-.086.005-.132h.017v-.012l-.017.012-.947.83-5.6 4.965a.632.632 0 0 1-.099.08ZM30.376 14.061a.3.3 0 0 1 .11-.046c.22-.006.433-.012.652 0 .352.017.704.046 1.051.08.433.047.866.081 1.282.18.675.149 1.345.31 1.998.523 1.1.354 2.123.913 3.013 1.648a8.017 8.017 0 0 1 2.056 2.494c.162.311.306.628.456.945a.67.67 0 0 1 .029.115l-1.034.207c-.092.023-.115-.029-.155-.092a12.314 12.314 0 0 0-1.565-2.137c-1.9-2.074-4.25-3.318-7.015-3.802-.29-.052-.584-.08-.878-.115Z"/><path fill="#FEFEFE" d="M11.31 14.602c.116.847.232 1.66.342 2.477h-.018l-.78-1.728a.15.15 0 0 1 .018-.11c.139-.2.277-.408.439-.639Z"/><path fill="#E24614" d="M29.931 9.614v.012h.007l-.007-.012Z"/><path fill="#FEFEFE" d="M19.302 35.103h-.03l.018-.017c.006.005.01.01.012.017Z"/><path fill="#F56B30" d="M22.437 6.008h.035l-.018.017-.017-.017Z"/><path fill="#313030" d="m22.016 14.568-2.073.956-3.366 1.573a1.016 1.016 0 0 0-.283.213c-.67.703-1.338 1.41-2.004 2.12l-.046.029c.075-.127.139-.254.22-.38.513-.842 1.027-1.688 1.547-2.53l.058-.109-1.144.432-.156.04h.006l2.05-1.682 2.685-2.2a.283.283 0 0 1 .225-.063l3.418.506.046.018-1.524.8.34.277Zm-4.186 1.52 1.512-.662 2.015-.904-1.299-.8-2.246 2.35-.023.028.04-.011Z"/><path fill="#313030" d="M14.77 16.913v.016l.01-.01-.01-.006ZM20.688 8.744l-.03.011c.006-.011.006-.022.012-.028l.018.017ZM37.42 13.093l.018.029h-.035l.017-.029ZM12.42 31.233c.028-.778.236-1.48.813-2.028.578-.547 1.253-.726 2.016-.605.606.092 1.027.478 1.23 1.049.311.87.294 1.74-.133 2.569-.428.83-1.548 1.428-2.524 1.21-.733-.168-1.125-.68-1.287-1.377-.064-.271-.08-.548-.116-.818ZM30.682 6.02l.017-.012v.011h-.017Z"/><path fill="#FEFEFE" d="m17.812 16.071 2.246-2.35 1.3.8-2.016.905-1.512.663-.018-.018Z"/><path fill="#FEFEFE" d="m17.83 16.088-.04.012.022-.029.018.017Z"/></g><defs><clipPath id="a"><path fill="#fff" d="M0 0h55.429v40H0z"/></clipPath></defs></svg>
